<svg fill="none" xmlns="http://www.w3.org/2000/svg" viewBox="0 0 242 178" class="design-iconfont">
  <path fill-rule="evenodd" clip-rule="evenodd" d="M91.1084 126.074L118.909 142.313L146.533 126.074L118.73 109.834L91.1084 126.074Z" fill="url(#nnikp1ysn__paint0_linear_152_4138)"/>
  <path opacity=".2" fill-rule="evenodd" clip-rule="evenodd" d="M79.2235 104.755L118.907 127.773L158.338 104.755L118.654 81.7363L79.2235 104.755Z" fill="#3DE6FF"/>
  <path d="M158.338 104.755L118.654 81.7363L79.2235 104.755" stroke="#3DDDFF" stroke-width=".831354"/>
  <path fill-rule="evenodd" clip-rule="evenodd" d="M118.786 127.959L158.216 104.941L158.338 93.7241L118.908 116.74L118.786 127.959Z" fill="url(#nnikp1ysn__paint1_linear_152_4138)"/>
  <path fill-rule="evenodd" clip-rule="evenodd" d="M118.786 127.96L118.911 116.741L79.2243 93.7251L79.1 104.944L118.786 127.96Z" fill="url(#nnikp1ysn__paint2_linear_152_4138)"/>
  <path fill-rule="evenodd" clip-rule="evenodd" d="M79.2235 94.0833L118.907 117.102L158.338 94.0833L118.654 71.0649L79.2235 94.0833Z" fill="url(#nnikp1ysn__paint3_linear_152_4138)"/>
  <path fill-rule="evenodd" clip-rule="evenodd" d="M99.9407 111.895C99.9407 112.541 100.29 113.269 100.722 113.521C101.154 113.773 101.503 113.453 101.503 112.807C101.503 112.159 101.154 111.43 100.722 111.178C100.29 110.928 99.9407 111.247 99.9407 111.895ZM96.1889 109.706C96.1889 110.352 96.5385 111.081 96.9702 111.333C97.4019 111.585 97.7515 111.264 97.7515 110.619C97.7515 109.97 97.4019 109.242 96.9702 108.99C96.5385 108.74 96.1889 109.058 96.1889 109.706ZM103.692 114.083C103.692 114.729 104.042 115.457 104.474 115.709C104.905 115.961 105.255 115.641 105.255 114.995C105.255 114.347 104.905 113.619 104.474 113.366C104.042 113.117 103.692 113.435 103.692 114.083ZM107.444 116.271C107.444 116.917 107.794 117.645 108.225 117.898C108.657 118.15 109.007 117.829 109.007 117.183C109.007 116.535 108.657 115.807 108.225 115.555C107.794 115.305 107.444 115.623 107.444 116.271ZM111.196 118.459C111.196 119.105 111.546 119.834 111.977 120.086C112.409 120.338 112.758 120.017 112.758 119.372C112.758 118.723 112.409 117.995 111.977 117.743C111.546 117.493 111.196 117.811 111.196 118.459ZM114.948 120.648C114.948 121.293 115.297 122.022 115.729 122.274C116.161 122.526 116.51 122.206 116.51 121.56C116.51 120.912 116.161 120.183 115.729 119.931C115.297 119.681 114.948 119.999 114.948 120.648Z" fill="url(#nnikp1ysn__paint4_linear_152_4138)"/>
  <path d="M118.88 127.892L119.004 116.727L79.1 93.6777V104.774L118.88 127.892Z" stroke="#3DDDFF" stroke-width=".692795"/>
  <path d="M119.005 127.893L158.123 104.775L158.245 93.7256L119.127 116.843L119.005 127.893Z" stroke="#3DDDFF" stroke-width=".692795"/>
  <path d="M79.1 93.6784L118.798 116.727L158.245 93.6784L118.545 70.627L79.1 93.6784Z" stroke="#3DDDFF" stroke-width=".692795"/>
  <path d="M85.8801 93.6781L118.776 112.701L151.464 93.6781L118.568 74.6548L85.8801 93.6781Z" stroke="#3DDDFF" stroke-width=".692795"/>
  <path d="M92.3462 93.6772L118.758 108.988L144.998 93.6772L118.589 78.3662L92.3462 93.6772Z" stroke="#3DDDFF" stroke-width=".692795"/>
  <path d="M98.8123 93.6764L118.736 105.278L138.531 93.6764L118.61 82.0776L98.8123 93.6764Z" stroke="#3DDDFF" stroke-width=".692795"/>
  <path d="M105.278 93.6794L118.715 101.566L132.067 93.6794L118.631 85.7905L105.278 93.6794Z" stroke="#3DDDFF" stroke-width=".692795"/>
  <path d="M54 0H184L154 93.2727L119 114L84 93.2727L54 0Z" fill="url(#nnikp1ysn__paint5_linear_152_4138)"/>
  <g opacity=".5" fill-rule="evenodd" clip-rule="evenodd" fill="#fff">
    <path d="M99.0758 41.629C99.0758 41.1436 98.6861 40.7524 98.2025 40.7524C97.7189 40.7524 97.3291 41.1436 97.3291 41.629C97.3291 42.1097 97.7189 42.5008 98.2025 42.5008C98.6861 42.5008 99.0758 42.1097 99.0758 41.629Z"/>
    <path d="M136.342 33.711C136.342 33.2256 135.952 32.8345 135.468 32.8345C134.985 32.8345 134.595 33.2256 134.595 33.711C134.595 34.1917 134.985 34.5829 135.468 34.5829C135.952 34.5829 136.342 34.1917 136.342 33.711Z"/>
    <path d="M123.532 57.629C123.532 57.1436 123.142 56.7524 122.658 56.7524C122.175 56.7524 121.785 57.1436 121.785 57.629C121.785 58.1097 122.175 58.5008 122.658 58.5008C123.142 58.5008 123.532 58.1097 123.532 57.629Z"/>
    <path d="M117.127 62.5878C117.127 62.2626 116.864 62.0034 116.544 62.0034C116.225 62.0034 115.962 62.2626 115.962 62.5878C115.962 62.9082 116.225 63.1674 116.544 63.1674C116.864 63.1674 117.127 62.9082 117.127 62.5878Z"/>
    <path d="M114.215 65.5048C114.215 65.1796 113.952 64.9204 113.633 64.9204C113.314 64.9204 113.051 65.1796 113.051 65.5048C113.051 65.8252 113.314 66.0844 113.633 66.0844C113.952 66.0844 114.215 65.8252 114.215 65.5048Z"/>
    <path d="M127.025 55.0033C127.025 54.6781 126.762 54.4189 126.443 54.4189C126.124 54.4189 125.861 54.6781 125.861 55.0033C125.861 55.3238 126.124 55.583 126.443 55.583C126.762 55.583 127.025 55.3238 127.025 55.0033Z"/>
    <path d="M121.785 67.8378C121.785 67.5126 121.522 67.2534 121.203 67.2534C120.883 67.2534 120.62 67.5126 120.62 67.8378C120.62 68.1582 120.883 68.4174 121.203 68.4174C121.522 68.4174 121.785 68.1582 121.785 67.8378Z"/>
    <path d="M107.228 55.0033C107.228 54.6781 106.965 54.4189 106.646 54.4189C106.326 54.4189 106.063 54.6781 106.063 55.0033C106.063 55.3238 106.326 55.583 106.646 55.583C106.965 55.583 107.228 55.3238 107.228 55.0033Z"/>
    <path d="M109.557 62.0043C109.557 61.6791 109.294 61.4199 108.975 61.4199C108.655 61.4199 108.393 61.6791 108.393 62.0043C108.393 62.3248 108.655 62.584 108.975 62.584C109.294 62.584 109.557 62.3248 109.557 62.0043Z"/>
    <path d="M128.19 45.6693C128.19 45.3442 127.927 45.085 127.608 45.085C127.288 45.085 127.026 45.3442 127.026 45.6693C127.026 45.9898 127.288 46.249 127.608 46.249C127.927 46.249 128.19 45.9898 128.19 45.6693Z"/>
    <path d="M107.81 43.3368C107.81 43.0116 107.547 42.7524 107.228 42.7524C106.909 42.7524 106.646 43.0116 106.646 43.3368C106.646 43.6573 106.909 43.9165 107.228 43.9165C107.547 43.9165 107.81 43.6573 107.81 43.3368Z"/>
    <path d="M113.633 51.796C113.633 51.3106 113.243 50.9194 112.759 50.9194C112.276 50.9194 111.886 51.3106 111.886 51.796C111.886 52.2767 112.276 52.6678 112.759 52.6678C113.243 52.6678 113.633 52.2767 113.633 51.796Z"/>
    <path d="M124.114 42.4615C124.114 41.9761 123.724 41.585 123.241 41.585C122.757 41.585 122.367 41.9761 122.367 42.4615C122.367 42.9422 122.757 43.3334 123.241 43.3334C123.724 43.3334 124.114 42.9422 124.114 42.4615Z"/>
    <path d="M96.7466 20.8766C96.7466 20.3912 96.3569 20 95.8733 20C95.3897 20 95 20.3912 95 20.8766C95 21.3572 95.3897 21.7484 95.8733 21.7484C96.3569 21.7484 96.7466 21.3572 96.7466 20.8766Z"/>
    <path d="M125.861 30.211C125.861 29.7256 125.471 29.3345 124.987 29.3345C124.504 29.3345 124.114 29.7256 124.114 30.211C124.114 30.6917 124.504 31.0829 124.987 31.0829C125.471 31.0829 125.861 30.6917 125.861 30.211Z"/>
    <path d="M103.734 29.916C103.734 29.2745 103.213 28.751 102.57 28.751C101.926 28.751 101.405 29.2745 101.405 29.916C101.405 30.5622 101.926 31.0858 102.57 31.0858C103.213 31.0858 103.734 30.5622 103.734 29.916Z"/>
    <path d="M141 21.7481C141 21.1066 140.479 20.583 139.836 20.583C139.192 20.583 138.671 21.1066 138.671 21.7481C138.671 22.3943 139.192 22.9178 139.836 22.9178C140.479 22.9178 141 22.3943 141 21.7481Z"/>
  </g>
  <path d="M2.04128 75.2684L22.4463 87.0275L42.72 75.2684L22.3149 63.5117L2.04128 75.2684Z" stroke="url(#nnikp1ysn__paint6_linear_152_4138)" stroke-width=".476576"/>
  <path d="M9.34276 75.2696L22.4229 82.845L35.4186 75.2696L22.3385 67.6919L9.34276 75.2696Z" stroke="url(#nnikp1ysn__paint7_linear_152_4138)" stroke-width=".476576"/>
  <path opacity=".3" fill-rule="evenodd" clip-rule="evenodd" d="M6.78352 62.0932L22.3436 71.0945L37.8029 62.0932L22.2428 53.0918L6.78352 62.0932Z" fill="#1968FF"/>
  <path fill-rule="evenodd" clip-rule="evenodd" d="M22.2953 71.1157L37.7545 62.1143L37.8038 58.4351L22.3422 67.4364L22.2953 71.1157Z" fill="url(#nnikp1ysn__paint8_linear_152_4138)"/>
  <path fill-rule="evenodd" clip-rule="evenodd" d="M22.2952 71.1162L22.3445 67.4369L6.78436 58.4355L6.73509 62.1148L22.2952 71.1162Z" fill="url(#nnikp1ysn__paint9_linear_152_4138)"/>
  <path fill-rule="evenodd" clip-rule="evenodd" d="M6.78352 58.4354L22.3436 67.4368L37.8029 58.4354L22.2428 49.4341L6.78352 58.4354Z" fill="url(#nnikp1ysn__paint10_linear_152_4138)"/>
  <path d="M6.73509 58.416L22.2999 67.4315L37.7662 58.416L22.2014 49.4028L6.73509 58.416Z" stroke="url(#nnikp1ysn__paint11_linear_152_4138)" stroke-width=".476576"/>
  <path d="M22.3327 71.0893L22.382 67.3252L6.78436 58.2861L6.73509 62.0479L22.3327 71.0893Z" stroke="#3DDDFF" stroke-width=".476576"/>
  <path d="M22.3811 71.0893L37.7184 62.0479L37.7653 58.2861L22.4281 67.3252L22.3811 71.0893Z" stroke="#3DDDFF" stroke-width=".476576"/>
  <path fill-rule="evenodd" clip-rule="evenodd" d="M8.82223 61.5876C8.82223 61.267 8.58761 60.8734 8.29903 60.7084C8.01279 60.5458 7.77817 60.6731 7.77817 60.9936C7.77817 61.3165 8.01279 61.7101 8.29903 61.8728C8.58761 62.0354 8.82223 61.9081 8.82223 61.5876Z" fill="url(#nnikp1ysn__paint12_linear_152_4138)"/>
  <path opacity=".3" fill-rule="evenodd" clip-rule="evenodd" d="M6.78352 54.2553L22.3436 63.2566L37.8029 54.2553L22.2428 45.2539L6.78352 54.2553Z" fill="#1968FF"/>
  <path fill-rule="evenodd" clip-rule="evenodd" d="M22.2953 63.2778L37.7545 54.2764L37.8038 50.5972L22.3422 59.5985L22.2953 63.2778Z" fill="url(#nnikp1ysn__paint13_linear_152_4138)"/>
  <path fill-rule="evenodd" clip-rule="evenodd" d="M22.2952 63.2783L22.3445 59.599L6.78436 50.5977L6.73509 54.2769L22.2952 63.2783Z" fill="url(#nnikp1ysn__paint14_linear_152_4138)"/>
  <path fill-rule="evenodd" clip-rule="evenodd" d="M6.78352 50.5976L22.3436 59.5989L37.8029 50.5976L22.2428 41.5962L6.78352 50.5976Z" fill="url(#nnikp1ysn__paint15_linear_152_4138)"/>
  <path d="M6.73509 50.5781L22.2999 59.5936L37.7662 50.5781L22.2014 41.5649L6.73509 50.5781Z" stroke="url(#nnikp1ysn__paint16_linear_152_4138)" stroke-width=".476576"/>
  <path d="M22.3327 63.2514L22.382 59.4873L6.78436 50.4482L6.73509 54.21L22.3327 63.2514Z" stroke="#3DDDFF" stroke-width=".476576"/>
  <path d="M22.3811 63.2514L37.7184 54.21L37.7653 50.4482L22.4281 59.4873L22.3811 63.2514Z" stroke="#3DDDFF" stroke-width=".476576"/>
  <path fill-rule="evenodd" clip-rule="evenodd" d="M8.82223 53.7497C8.82223 53.4291 8.58761 53.0355 8.29903 52.8705C8.01279 52.7079 7.77817 52.8352 7.77817 53.1557C7.77817 53.4786 8.01279 53.8722 8.29903 54.0349C8.58761 54.1975 8.82223 54.0702 8.82223 53.7497Z" fill="url(#nnikp1ysn__paint17_linear_152_4138)"/>
  <path fill-rule="evenodd" clip-rule="evenodd" d="M22.2953 55.4394L37.7545 46.4381L37.8038 42.7588L22.3422 51.7601L22.2953 55.4394Z" fill="url(#nnikp1ysn__paint18_linear_152_4138)"/>
  <path fill-rule="evenodd" clip-rule="evenodd" d="M22.2952 55.4399L22.3445 51.7606L6.78436 42.7593L6.73509 46.4385L22.2952 55.4399Z" fill="url(#nnikp1ysn__paint19_linear_152_4138)"/>
  <path fill-rule="evenodd" clip-rule="evenodd" d="M6.78352 42.7592L22.3436 51.7605L37.8029 42.7592L22.2428 33.7578L6.78352 42.7592Z" fill="url(#nnikp1ysn__paint20_linear_152_4138)"/>
  <path d="M6.73509 42.7397L22.2999 51.7552L37.7662 42.7397L22.2014 33.7266L6.73509 42.7397Z" stroke="#3DDDFF" stroke-width=".476576"/>
  <path d="M22.3327 55.4131L22.382 51.6489L6.78436 42.6099L6.73509 46.3716L22.3327 55.4131Z" stroke="#3DDDFF" stroke-width=".476576"/>
  <path d="M22.3811 55.4131L37.7184 46.3716L37.7653 42.6099L22.4281 51.6489L22.3811 55.4131Z" stroke="#3DDDFF" stroke-width=".476576"/>
  <path fill-rule="evenodd" clip-rule="evenodd" d="M17.4266 49.6646V51.635L17.8325 51.8801V49.9097L17.4266 49.6646ZM18.2379 50.1557V52.1262L18.6437 52.3713V50.4009L18.2379 50.1557ZM19.0491 50.6469V52.6174L19.455 52.8625V50.8921L19.0491 50.6469ZM19.8604 51.1381V53.1086L20.2663 53.3537V51.3833L19.8604 51.1381ZM20.6717 51.6293V53.5998L21.0776 53.8449V51.8745L20.6717 51.6293Z" fill="url(#nnikp1ysn__paint21_linear_152_4138)"/>
  <g filter="url(#nnikp1ysn__filter0_d_152_4138)">
    <path fill-rule="evenodd" clip-rule="evenodd" d="M9.8643 42.7393L22.2899 49.9258L34.638 42.7393L22.2101 35.5552L9.8643 42.7393Z" fill="url(#nnikp1ysn__paint22_linear_152_4138)"/>
  </g>
  <path fill-rule="evenodd" clip-rule="evenodd" d="M14.0356 32.1766C14.0356 31.9599 13.862 31.7856 13.6461 31.7856C13.4303 31.7856 13.2543 31.9599 13.2543 32.1766C13.2543 32.3932 13.4303 32.5698 13.6461 32.5698C13.862 32.5698 14.0356 32.3932 14.0356 32.1766Z" fill="#fff"/>
  <path fill-rule="evenodd" clip-rule="evenodd" d="M30.7247 28.6312C30.7247 28.4145 30.5511 28.2402 30.3352 28.2402C30.1194 28.2402 29.9434 28.4145 29.9434 28.6312C29.9434 28.8478 30.1194 29.0244 30.3352 29.0244C30.5511 29.0244 30.7247 28.8478 30.7247 28.6312Z" fill="#fff"/>
  <path fill-rule="evenodd" clip-rule="evenodd" d="M24.9878 39.3431C24.9878 39.1264 24.8142 38.9521 24.5983 38.9521C24.3825 38.9521 24.2065 39.1264 24.2065 39.3431C24.2065 39.5597 24.3825 39.7363 24.5983 39.7363C24.8142 39.7363 24.9878 39.5597 24.9878 39.3431Z" fill="#fff"/>
  <path fill-rule="evenodd" clip-rule="evenodd" d="M22.1197 41.5646C22.1197 41.421 22.0047 41.3032 21.8593 41.3032C21.7162 41.3032 21.5988 41.421 21.5988 41.5646C21.5988 41.7083 21.7162 41.826 21.8593 41.826C22.0047 41.826 22.1197 41.7083 22.1197 41.5646Z" fill="#fff"/>
  <path fill-rule="evenodd" clip-rule="evenodd" d="M20.8159 42.8713C20.8159 42.7276 20.7009 42.6099 20.5554 42.6099C20.4123 42.6099 20.295 42.7276 20.295 42.8713C20.295 43.0149 20.4123 43.1327 20.5554 43.1327C20.7009 43.1327 20.8159 43.0149 20.8159 42.8713Z" fill="#fff"/>
  <path fill-rule="evenodd" clip-rule="evenodd" d="M26.5528 38.1686C26.5528 38.025 26.4378 37.9072 26.2923 37.9072C26.1492 37.9072 26.0319 38.025 26.0319 38.1686C26.0319 38.3123 26.1492 38.43 26.2923 38.43C26.4378 38.43 26.5528 38.3123 26.5528 38.1686Z" fill="#fff"/>
  <path fill-rule="evenodd" clip-rule="evenodd" d="M24.2059 43.9167C24.2059 43.773 24.0909 43.6553 23.9454 43.6553C23.8023 43.6553 23.685 43.773 23.685 43.9167C23.685 44.0603 23.8023 44.1781 23.9454 44.1781C24.0909 44.1781 24.2059 44.0603 24.2059 43.9167Z" fill="#fff"/>
  <path fill-rule="evenodd" clip-rule="evenodd" d="M17.6866 38.1686C17.6866 38.025 17.5717 37.9072 17.4262 37.9072C17.2831 37.9072 17.1658 38.025 17.1658 38.1686C17.1658 38.3123 17.2831 38.43 17.4262 38.43C17.5717 38.43 17.6866 38.3123 17.6866 38.1686Z" fill="#fff"/>
  <path fill-rule="evenodd" clip-rule="evenodd" d="M18.7297 41.3039C18.7297 41.1602 18.6148 41.0425 18.4693 41.0425C18.3262 41.0425 18.2089 41.1602 18.2089 41.3039C18.2089 41.4475 18.3262 41.5653 18.4693 41.5653C18.6148 41.5653 18.7297 41.4475 18.7297 41.3039Z" fill="#fff"/>
  <path fill-rule="evenodd" clip-rule="evenodd" d="M27.0743 33.988C27.0743 33.8443 26.9593 33.7266 26.8139 33.7266C26.6707 33.7266 26.5534 33.8443 26.5534 33.988C26.5534 34.1316 26.6707 34.2494 26.8139 34.2494C26.9593 34.2494 27.0743 34.1316 27.0743 33.988Z" fill="#fff"/>
  <path fill-rule="evenodd" clip-rule="evenodd" d="M17.9474 32.9425C17.9474 32.7989 17.8325 32.6812 17.687 32.6812C17.5439 32.6812 17.4266 32.7989 17.4266 32.9425C17.4266 33.0862 17.5439 33.2039 17.687 33.2039C17.8325 33.2039 17.9474 33.0862 17.9474 32.9425Z" fill="#fff"/>
  <path fill-rule="evenodd" clip-rule="evenodd" d="M20.5548 36.7303C20.5548 36.5136 20.3811 36.3394 20.1653 36.3394C19.9494 36.3394 19.7735 36.5136 19.7735 36.7303C19.7735 36.9469 19.9494 37.1235 20.1653 37.1235C20.3811 37.1235 20.5548 36.9469 20.5548 36.7303Z" fill="#fff"/>
  <path fill-rule="evenodd" clip-rule="evenodd" d="M25.2486 32.5496C25.2486 32.333 25.075 32.1587 24.8591 32.1587C24.6433 32.1587 24.4673 32.333 24.4673 32.5496C24.4673 32.7663 24.6433 32.9429 24.8591 32.9429C25.075 32.9429 25.2486 32.7663 25.2486 32.5496Z" fill="#fff"/>
  <path fill-rule="evenodd" clip-rule="evenodd" d="M12.9925 22.8826C12.9925 22.666 12.8189 22.4917 12.603 22.4917C12.3872 22.4917 12.2112 22.666 12.2112 22.8826C12.2112 23.0993 12.3872 23.2759 12.603 23.2759C12.8189 23.2759 12.9925 23.0993 12.9925 22.8826Z" fill="#fff"/>
  <path fill-rule="evenodd" clip-rule="evenodd" d="M26.0309 27.0628C26.0309 26.8461 25.8573 26.6719 25.6414 26.6719C25.4256 26.6719 25.2496 26.8461 25.2496 27.0628C25.2496 27.2794 25.4256 27.4561 25.6414 27.4561C25.8573 27.4561 26.0309 27.2794 26.0309 27.0628Z" fill="#fff"/>
  <path fill-rule="evenodd" clip-rule="evenodd" d="M16.1237 26.9334C16.1237 26.6438 15.8891 26.4106 15.6005 26.4106C15.3143 26.4106 15.0797 26.6438 15.0797 26.9334C15.0797 27.2207 15.3143 27.4539 15.6005 27.4539C15.8891 27.4539 16.1237 27.2207 16.1237 26.9334Z" fill="#fff"/>
  <path fill-rule="evenodd" clip-rule="evenodd" d="M32.8129 23.2757C32.8129 22.9861 32.5782 22.7529 32.2897 22.7529C32.0034 22.7529 31.7688 22.9861 31.7688 23.2757C31.7688 23.563 32.0034 23.7962 32.2897 23.7962C32.5782 23.7962 32.8129 23.563 32.8129 23.2757Z" fill="#fff"/>
  <path fill-rule="evenodd" clip-rule="evenodd" d="M9.89931 42.7595H9.8643V2H34.638V42.7595H34.6033L22.2899 49.9257L9.89931 42.7595Z" fill="url(#nnikp1ysn__paint23_linear_152_4138)"/>
  <path d="M1 163.919L23.7137 177.001L46.282 163.919L23.5683 150.838L1 163.919Z" stroke="url(#nnikp1ysn__paint24_linear_152_4138)" stroke-width=".451196"/>
  <path d="M9.21176 164.036L23.8052 172.522L38.3049 164.036L23.7114 155.551L9.21176 164.036Z" stroke="url(#nnikp1ysn__paint25_linear_152_4138)" stroke-width=".451196"/>
  <path opacity=".3" fill-rule="evenodd" clip-rule="evenodd" d="M6.21576 149.297L23.5778 159.34L40.8272 149.297L23.4675 139.253L6.21576 149.297Z" fill="#1968FF"/>
  <path fill-rule="evenodd" clip-rule="evenodd" d="M23.5239 159.365L40.7733 149.319L40.8273 145.216L23.5779 155.259L23.5239 159.365Z" fill="url(#nnikp1ysn__paint26_linear_152_4138)"/>
  <path fill-rule="evenodd" clip-rule="evenodd" d="M23.5237 159.362L23.5777 155.259L6.21565 145.216L6.16168 149.319L23.5237 159.362Z" fill="url(#nnikp1ysn__paint27_linear_152_4138)"/>
  <path fill-rule="evenodd" clip-rule="evenodd" d="M6.21574 145.216L23.5778 155.259L40.8271 145.216L23.4675 135.172L6.21574 145.216Z" fill="url(#nnikp1ysn__paint28_linear_152_4138)"/>
  <path d="M6.16168 145.195L23.5307 155.252L40.7872 145.195L23.4181 135.137L6.16168 145.195Z" stroke="url(#nnikp1ysn__paint29_linear_152_4138)" stroke-width=".451196"/>
  <path d="M23.5659 159.332L23.6199 155.134L6.21566 145.048L6.1617 149.246L23.5659 159.332Z" stroke="#3DDDFF" stroke-width=".451196"/>
  <path d="M23.6197 159.332L40.733 149.246L40.787 145.048L23.6737 155.134L23.6197 159.332Z" stroke="#3DDDFF" stroke-width=".451196"/>
  <path fill-rule="evenodd" clip-rule="evenodd" d="M8.48929 148.733C8.48929 148.372 8.22886 147.934 7.90742 147.752C7.58599 147.569 7.32556 147.712 7.32556 148.071C7.32556 148.429 7.58599 148.867 7.90742 149.051C8.22886 149.233 8.48929 149.091 8.48929 148.733Z" fill="url(#nnikp1ysn__paint30_linear_152_4138)"/>
  <path opacity=".3" fill-rule="evenodd" clip-rule="evenodd" d="M6.21576 140.551L23.5778 150.594L40.8272 140.551L23.4675 130.508L6.21576 140.551Z" fill="#1968FF"/>
  <path fill-rule="evenodd" clip-rule="evenodd" d="M23.5239 150.619L40.7733 140.574L40.8273 136.47L23.5779 146.513L23.5239 150.619Z" fill="url(#nnikp1ysn__paint31_linear_152_4138)"/>
  <path fill-rule="evenodd" clip-rule="evenodd" d="M23.5237 150.617L23.5777 146.513L6.21565 136.47L6.16168 140.574L23.5237 150.617Z" fill="url(#nnikp1ysn__paint32_linear_152_4138)"/>
  <path fill-rule="evenodd" clip-rule="evenodd" d="M6.21574 136.47L23.5778 146.513L40.8271 136.47L23.4675 126.427L6.21574 136.47Z" fill="url(#nnikp1ysn__paint33_linear_152_4138)"/>
  <path d="M6.16168 136.449L23.5307 146.507L40.7872 136.449L23.4181 126.392L6.16168 136.449Z" stroke="url(#nnikp1ysn__paint34_linear_152_4138)" stroke-width=".451196"/>
  <path d="M23.5659 150.587L23.6199 146.389L6.21565 136.303L6.16168 140.501L23.5659 150.587Z" stroke="#3DDDFF" stroke-width=".451196"/>
  <path d="M23.6197 150.587L40.733 140.501L40.787 136.303L23.6737 146.389L23.6197 150.587Z" stroke="#3DDDFF" stroke-width=".451196"/>
  <path fill-rule="evenodd" clip-rule="evenodd" d="M8.48927 139.988C8.48927 139.627 8.22884 139.189 7.90741 139.007C7.58598 138.823 7.32555 138.967 7.32555 139.326C7.32555 139.684 7.58598 140.122 7.90741 140.306C8.22884 140.488 8.48927 140.346 8.48927 139.988Z" fill="url(#nnikp1ysn__paint35_linear_152_4138)"/>
  <path fill-rule="evenodd" clip-rule="evenodd" d="M23.5239 141.874L40.7733 131.828L40.8273 127.725L23.5779 137.768L23.5239 141.874Z" fill="url(#nnikp1ysn__paint36_linear_152_4138)"/>
  <path fill-rule="evenodd" clip-rule="evenodd" d="M23.5237 141.871L23.5777 137.768L6.21565 127.725L6.16168 131.828L23.5237 141.871Z" fill="url(#nnikp1ysn__paint37_linear_152_4138)"/>
  <path fill-rule="evenodd" clip-rule="evenodd" d="M6.21574 127.725L23.5778 137.768L40.8271 127.725L23.4675 117.682L6.21574 127.725Z" fill="url(#nnikp1ysn__paint38_linear_152_4138)"/>
  <path d="M6.16168 127.704L23.5307 137.762L40.7872 127.704L23.4181 117.647L6.16168 127.704Z" stroke="#3DDDFF" stroke-width=".451196"/>
  <path d="M23.5659 141.841L23.6199 137.644L6.21566 127.558L6.1617 131.756L23.5659 141.841Z" stroke="#3DDDFF" stroke-width=".451196"/>
  <path d="M23.6197 141.841L40.733 131.756L40.787 127.558L23.6737 137.644L23.6197 141.841Z" stroke="#3DDDFF" stroke-width=".451196"/>
  <path fill-rule="evenodd" clip-rule="evenodd" d="M18.0914 135.43V137.629L18.5442 137.902V135.703L18.0914 135.43ZM18.9966 135.978V138.177L19.4494 138.45V136.251L18.9966 135.978ZM19.9018 136.526V138.725L20.3546 138.998V136.799L19.9018 136.526ZM20.8071 137.074V139.273L21.2599 139.546V137.347L20.8071 137.074ZM21.7123 137.622V139.821L22.1651 140.094V137.895L21.7123 137.622Z" fill="url(#nnikp1ysn__paint39_linear_152_4138)"/>
  <g filter="url(#nnikp1ysn__filter1_d_152_4138)">
    <path fill-rule="evenodd" clip-rule="evenodd" d="M9.65329 127.704L23.5194 135.72L37.2941 127.704L23.4303 119.688L9.65329 127.704Z" fill="url(#nnikp1ysn__paint40_linear_152_4138)"/>
  </g>
  <path fill-rule="evenodd" clip-rule="evenodd" d="M14.3087 115.92C14.3087 115.677 14.1139 115.482 13.8723 115.482C13.6306 115.482 13.4359 115.677 13.4359 115.92C13.4359 116.16 13.6306 116.356 13.8723 116.356C14.1139 116.356 14.3087 116.16 14.3087 115.92Z" fill="#fff"/>
  <path fill-rule="evenodd" clip-rule="evenodd" d="M32.9306 111.963C32.9306 111.721 32.7358 111.525 32.4942 111.525C32.2525 111.525 32.0578 111.721 32.0578 111.963C32.0578 112.204 32.2525 112.399 32.4942 112.399C32.7358 112.399 32.9306 112.204 32.9306 111.963Z" fill="#fff"/>
  <path fill-rule="evenodd" clip-rule="evenodd" d="M26.5293 123.915C26.5293 123.673 26.3346 123.477 26.0929 123.477C25.8512 123.477 25.6565 123.673 25.6565 123.915C25.6565 124.155 25.8512 124.351 26.0929 124.351C26.3346 124.351 26.5293 124.155 26.5293 123.915Z" fill="#fff"/>
  <path fill-rule="evenodd" clip-rule="evenodd" d="M23.3287 126.393C23.3287 126.231 23.1973 126.101 23.0378 126.101C22.8782 126.101 22.7468 126.231 22.7468 126.393C22.7468 126.553 22.8782 126.683 23.0378 126.683C23.1973 126.683 23.3287 126.553 23.3287 126.393Z" fill="#fff"/>
  <path fill-rule="evenodd" clip-rule="evenodd" d="M21.8739 127.851C21.8739 127.688 21.7425 127.559 21.5829 127.559C21.4234 127.559 21.292 127.688 21.292 127.851C21.292 128.011 21.4234 128.14 21.5829 128.14C21.7425 128.14 21.8739 128.011 21.8739 127.851Z" fill="#fff"/>
  <path fill-rule="evenodd" clip-rule="evenodd" d="M28.2751 122.603C28.2751 122.44 28.1437 122.311 27.9842 122.311C27.8247 122.311 27.6933 122.44 27.6933 122.603C27.6933 122.763 27.8247 122.892 27.9842 122.892C28.1437 122.892 28.2751 122.763 28.2751 122.603Z" fill="#fff"/>
  <path fill-rule="evenodd" clip-rule="evenodd" d="M25.6564 129.017C25.6564 128.854 25.525 128.725 25.3655 128.725C25.206 128.725 25.0746 128.854 25.0746 129.017C25.0746 129.177 25.206 129.306 25.3655 129.306C25.525 129.306 25.6564 129.177 25.6564 129.017Z" fill="#fff"/>
  <path fill-rule="evenodd" clip-rule="evenodd" d="M18.3822 122.603C18.3822 122.44 18.2509 122.311 18.0913 122.311C17.9318 122.311 17.8004 122.44 17.8004 122.603C17.8004 122.763 17.9318 122.892 18.0913 122.892C18.2509 122.892 18.3822 122.763 18.3822 122.603Z" fill="#fff"/>
  <path fill-rule="evenodd" clip-rule="evenodd" d="M19.5461 126.102C19.5461 125.939 19.4147 125.81 19.2552 125.81C19.0957 125.81 18.9643 125.939 18.9643 126.102C18.9643 126.262 19.0957 126.391 19.2552 126.391C19.4147 126.391 19.5461 126.262 19.5461 126.102Z" fill="#fff"/>
  <path fill-rule="evenodd" clip-rule="evenodd" d="M28.8571 117.939C28.8571 117.776 28.7257 117.647 28.5661 117.647C28.4066 117.647 28.2752 117.776 28.2752 117.939C28.2752 118.099 28.4066 118.229 28.5661 118.229C28.7257 118.229 28.8571 118.099 28.8571 117.939Z" fill="#fff"/>
  <path fill-rule="evenodd" clip-rule="evenodd" d="M18.6732 116.773C18.6732 116.611 18.5418 116.481 18.3823 116.481C18.2227 116.481 18.0914 116.611 18.0914 116.773C18.0914 116.934 18.2227 117.063 18.3823 117.063C18.5418 117.063 18.6732 116.934 18.6732 116.773Z" fill="#fff"/>
  <path fill-rule="evenodd" clip-rule="evenodd" d="M21.5829 121.001C21.5829 120.758 21.3881 120.562 21.1465 120.562C20.9048 120.562 20.7101 120.758 20.7101 121.001C20.7101 121.241 20.9048 121.436 21.1465 121.436C21.3881 121.436 21.5829 121.241 21.5829 121.001Z" fill="#fff"/>
  <path fill-rule="evenodd" clip-rule="evenodd" d="M26.8202 116.336C26.8202 116.093 26.6255 115.898 26.3838 115.898C26.1422 115.898 25.9474 116.093 25.9474 116.336C25.9474 116.576 26.1422 116.772 26.3838 116.772C26.6255 116.772 26.8202 116.576 26.8202 116.336Z" fill="#fff"/>
  <path fill-rule="evenodd" clip-rule="evenodd" d="M13.1448 105.55C13.1448 105.307 12.9501 105.112 12.7084 105.112C12.4667 105.112 12.272 105.307 12.272 105.55C12.272 105.79 12.4667 105.985 12.7084 105.985C12.9501 105.985 13.1448 105.79 13.1448 105.55Z" fill="#fff"/>
  <path fill-rule="evenodd" clip-rule="evenodd" d="M27.6932 110.214C27.6932 109.972 27.4984 109.776 27.2568 109.776C27.0151 109.776 26.8204 109.972 26.8204 110.214C26.8204 110.455 27.0151 110.65 27.2568 110.65C27.4984 110.65 27.6932 110.455 27.6932 110.214Z" fill="#fff"/>
  <path fill-rule="evenodd" clip-rule="evenodd" d="M16.6364 110.067C16.6364 109.746 16.376 109.485 16.0545 109.485C15.7331 109.485 15.4727 109.746 15.4727 110.067C15.4727 110.39 15.7331 110.652 16.0545 110.652C16.376 110.652 16.6364 110.39 16.6364 110.067Z" fill="#fff"/>
  <path fill-rule="evenodd" clip-rule="evenodd" d="M35.2583 105.985C35.2583 105.665 34.9979 105.403 34.6764 105.403C34.355 105.403 34.0946 105.665 34.0946 105.985C34.0946 106.308 34.355 106.57 34.6764 106.57C34.9979 106.57 35.2583 106.308 35.2583 105.985Z" fill="#fff"/>
  <path fill-rule="evenodd" clip-rule="evenodd" d="M9.68998 127.724H9.65331V82.2485H37.2941V127.724H37.2577L23.5195 135.719L9.68998 127.724Z" fill="url(#nnikp1ysn__paint41_linear_152_4138)"/>
  <path d="M195.718 97.219L218.432 110.3L241 97.219L218.286 84.1377L195.718 97.219Z" stroke="url(#nnikp1ysn__paint42_linear_152_4138)" stroke-width=".451196"/>
  <path d="M203.93 97.3363L218.523 105.821L233.023 97.3363L218.429 88.8511L203.93 97.3363Z" stroke="url(#nnikp1ysn__paint43_linear_152_4138)" stroke-width=".451196"/>
  <path opacity=".3" fill-rule="evenodd" clip-rule="evenodd" d="M200.934 82.5964L218.296 92.6395L235.545 82.5964L218.186 72.5532L200.934 82.5964Z" fill="#1968FF"/>
  <path fill-rule="evenodd" clip-rule="evenodd" d="M218.242 92.6647L235.491 82.6192L235.545 78.5156L218.296 88.5588L218.242 92.6647Z" fill="url(#nnikp1ysn__paint44_linear_152_4138)"/>
  <path fill-rule="evenodd" clip-rule="evenodd" d="M218.242 92.6623L218.296 88.5588L200.934 78.5156L200.88 82.6192L218.242 92.6623Z" fill="url(#nnikp1ysn__paint45_linear_152_4138)"/>
  <path fill-rule="evenodd" clip-rule="evenodd" d="M200.934 78.5158L218.296 88.559L235.545 78.5158L218.185 68.4727L200.934 78.5158Z" fill="url(#nnikp1ysn__paint46_linear_152_4138)"/>
  <path d="M200.88 78.4943L218.249 88.5516L235.505 78.4943L218.136 68.437L200.88 78.4943Z" stroke="url(#nnikp1ysn__paint47_linear_152_4138)" stroke-width=".451196"/>
  <path d="M218.284 92.6315L218.338 88.4337L200.934 78.3481L200.88 82.546L218.284 92.6315Z" stroke="#3DDDFF" stroke-width=".451196"/>
  <path d="M218.338 92.6315L235.451 82.546L235.505 78.3481L218.392 88.4337L218.338 92.6315Z" stroke="#3DDDFF" stroke-width=".451196"/>
  <path fill-rule="evenodd" clip-rule="evenodd" d="M203.207 82.0328C203.207 81.6721 202.947 81.2337 202.625 81.0522C202.304 80.8684 202.044 81.0122 202.044 81.3704C202.044 81.7287 202.304 82.1671 202.625 82.3509C202.947 82.5324 203.207 82.391 203.207 82.0328Z" fill="url(#nnikp1ysn__paint48_linear_152_4138)"/>
  <path opacity=".3" fill-rule="evenodd" clip-rule="evenodd" d="M200.934 73.8508L218.296 83.8939L235.545 73.8508L218.186 63.8076L200.934 73.8508Z" fill="#1968FF"/>
  <path fill-rule="evenodd" clip-rule="evenodd" d="M218.242 83.9191L235.491 73.8735L235.545 69.77L218.296 79.8132L218.242 83.9191Z" fill="url(#nnikp1ysn__paint49_linear_152_4138)"/>
  <path fill-rule="evenodd" clip-rule="evenodd" d="M218.242 83.9167L218.296 79.8132L200.934 69.77L200.88 73.8735L218.242 83.9167Z" fill="url(#nnikp1ysn__paint50_linear_152_4138)"/>
  <path fill-rule="evenodd" clip-rule="evenodd" d="M200.934 69.7697L218.296 79.8129L235.545 69.7697L218.185 59.7266L200.934 69.7697Z" fill="url(#nnikp1ysn__paint51_linear_152_4138)"/>
  <path d="M200.88 69.7492L218.249 79.8065L235.505 69.7492L218.136 59.6919L200.88 69.7492Z" stroke="url(#nnikp1ysn__paint52_linear_152_4138)" stroke-width=".451196"/>
  <path d="M218.284 83.8869L218.338 79.6891L200.934 69.6035L200.88 73.8013L218.284 83.8869Z" stroke="#3DDDFF" stroke-width=".451196"/>
  <path d="M218.338 83.8869L235.451 73.8013L235.505 69.6035L218.392 79.6891L218.338 83.8869Z" stroke="#3DDDFF" stroke-width=".451196"/>
  <path fill-rule="evenodd" clip-rule="evenodd" d="M203.207 73.2876C203.207 72.927 202.947 72.4886 202.625 72.3071C202.304 72.1233 202.044 72.2671 202.044 72.6253C202.044 72.9836 202.304 73.422 202.625 73.6058C202.947 73.7873 203.207 73.6459 203.207 73.2876Z" fill="url(#nnikp1ysn__paint53_linear_152_4138)"/>
  <path fill-rule="evenodd" clip-rule="evenodd" d="M218.242 75.1735L235.491 65.1279L235.545 61.0244L218.296 71.0676L218.242 75.1735Z" fill="url(#nnikp1ysn__paint54_linear_152_4138)"/>
  <path fill-rule="evenodd" clip-rule="evenodd" d="M218.242 75.1711L218.296 71.0676L200.934 61.0244L200.88 65.1279L218.242 75.1711Z" fill="url(#nnikp1ysn__paint55_linear_152_4138)"/>
  <path fill-rule="evenodd" clip-rule="evenodd" d="M200.934 61.0246L218.296 71.0678L235.545 61.0246L218.185 50.9814L200.934 61.0246Z" fill="url(#nnikp1ysn__paint56_linear_152_4138)"/>
  <path d="M200.88 61.0041L218.249 71.0614L235.505 61.0041L218.136 50.9468L200.88 61.0041Z" stroke="#3DDDFF" stroke-width=".451196"/>
  <path d="M218.284 75.1413L218.338 70.9435L200.934 60.8579L200.88 65.0557L218.284 75.1413Z" stroke="#3DDDFF" stroke-width=".451196"/>
  <path d="M218.338 75.1413L235.451 65.0557L235.505 60.8579L218.392 70.9435L218.338 75.1413Z" stroke="#3DDDFF" stroke-width=".451196"/>
  <path fill-rule="evenodd" clip-rule="evenodd" d="M212.809 68.7295V70.9286L213.262 71.202V69.0029L212.809 68.7295ZM213.715 69.2775V71.4766L214.167 71.75V69.5509L213.715 69.2775ZM214.62 69.8256V72.0247L215.073 72.2981V70.099L214.62 69.8256ZM215.525 70.3736V72.5727L215.978 72.8461V70.647L215.525 70.3736ZM216.43 70.9217V73.1207L216.883 73.3941V71.1951L216.43 70.9217Z" fill="url(#nnikp1ysn__paint57_linear_152_4138)"/>
  <g filter="url(#nnikp1ysn__filter2_d_152_4138)">
    <path fill-rule="evenodd" clip-rule="evenodd" d="M204.371 61.0034L218.237 69.0196L232.012 61.0034L218.148 52.9873L204.371 61.0034Z" fill="url(#nnikp1ysn__paint58_linear_152_4138)"/>
  </g>
  <path fill-rule="evenodd" clip-rule="evenodd" d="M209.027 49.2198C209.027 48.9772 208.832 48.7817 208.59 48.7817C208.349 48.7817 208.154 48.9772 208.154 49.2198C208.154 49.46 208.349 49.6554 208.59 49.6554C208.832 49.6554 209.027 49.46 209.027 49.2198Z" fill="#fff"/>
  <path fill-rule="evenodd" clip-rule="evenodd" d="M227.649 45.2632C227.649 45.0207 227.454 44.8252 227.212 44.8252C226.971 44.8252 226.776 45.0207 226.776 45.2632C226.776 45.5034 226.971 45.6989 227.212 45.6989C227.454 45.6989 227.649 45.5034 227.649 45.2632Z" fill="#fff"/>
  <path fill-rule="evenodd" clip-rule="evenodd" d="M221.247 57.2149C221.247 56.9723 221.053 56.7769 220.811 56.7769C220.569 56.7769 220.375 56.9723 220.375 57.2149C220.375 57.4551 220.569 57.6505 220.811 57.6505C221.053 57.6505 221.247 57.4551 221.247 57.2149Z" fill="#fff"/>
  <path fill-rule="evenodd" clip-rule="evenodd" d="M218.047 59.6929C218.047 59.5304 217.915 59.4009 217.756 59.4009C217.596 59.4009 217.465 59.5304 217.465 59.6929C217.465 59.853 217.596 59.9825 217.756 59.9825C217.915 59.9825 218.047 59.853 218.047 59.6929Z" fill="#fff"/>
  <path fill-rule="evenodd" clip-rule="evenodd" d="M216.592 61.1504C216.592 60.9879 216.46 60.8584 216.301 60.8584C216.141 60.8584 216.01 60.9879 216.01 61.1504C216.01 61.3105 216.141 61.4401 216.301 61.4401C216.46 61.4401 216.592 61.3105 216.592 61.1504Z" fill="#fff"/>
  <path fill-rule="evenodd" clip-rule="evenodd" d="M222.993 55.9029C222.993 55.7404 222.862 55.6108 222.702 55.6108C222.543 55.6108 222.411 55.7404 222.411 55.9029C222.411 56.063 222.543 56.1925 222.702 56.1925C222.862 56.1925 222.993 56.063 222.993 55.9029Z" fill="#fff"/>
  <path fill-rule="evenodd" clip-rule="evenodd" d="M220.374 62.3164C220.374 62.1539 220.243 62.0244 220.084 62.0244C219.924 62.0244 219.793 62.1539 219.793 62.3164C219.793 62.4766 219.924 62.6061 220.084 62.6061C220.243 62.6061 220.374 62.4766 220.374 62.3164Z" fill="#fff"/>
  <path fill-rule="evenodd" clip-rule="evenodd" d="M213.1 55.9029C213.1 55.7404 212.969 55.6108 212.809 55.6108C212.65 55.6108 212.518 55.7404 212.518 55.9029C212.518 56.063 212.65 56.1925 212.809 56.1925C212.969 56.1925 213.1 56.063 213.1 55.9029Z" fill="#fff"/>
  <path fill-rule="evenodd" clip-rule="evenodd" d="M214.264 59.4014C214.264 59.2389 214.133 59.1094 213.973 59.1094C213.814 59.1094 213.682 59.2389 213.682 59.4014C213.682 59.5615 213.814 59.691 213.973 59.691C214.133 59.691 214.264 59.5615 214.264 59.4014Z" fill="#fff"/>
  <path fill-rule="evenodd" clip-rule="evenodd" d="M223.575 51.2388C223.575 51.0763 223.444 50.9468 223.284 50.9468C223.125 50.9468 222.993 51.0763 222.993 51.2388C222.993 51.3989 223.125 51.5284 223.284 51.5284C223.444 51.5284 223.575 51.3989 223.575 51.2388Z" fill="#fff"/>
  <path fill-rule="evenodd" clip-rule="evenodd" d="M213.391 50.0733C213.391 49.9108 213.26 49.7812 213.1 49.7812C212.941 49.7812 212.809 49.9108 212.809 50.0733C212.809 50.2334 212.941 50.3629 213.1 50.3629C213.26 50.3629 213.391 50.2334 213.391 50.0733Z" fill="#fff"/>
  <path fill-rule="evenodd" clip-rule="evenodd" d="M216.301 54.3003C216.301 54.0578 216.106 53.8623 215.864 53.8623C215.623 53.8623 215.428 54.0578 215.428 54.3003C215.428 54.5405 215.623 54.736 215.864 54.736C216.106 54.736 216.301 54.5405 216.301 54.3003Z" fill="#fff"/>
  <path fill-rule="evenodd" clip-rule="evenodd" d="M221.538 49.6358C221.538 49.3932 221.344 49.1978 221.102 49.1978C220.86 49.1978 220.665 49.3932 220.665 49.6358C220.665 49.876 220.86 50.0714 221.102 50.0714C221.344 50.0714 221.538 49.876 221.538 49.6358Z" fill="#fff"/>
  <path fill-rule="evenodd" clip-rule="evenodd" d="M207.863 38.8496C207.863 38.6071 207.668 38.4116 207.426 38.4116C207.185 38.4116 206.99 38.6071 206.99 38.8496C206.99 39.0898 207.185 39.2853 207.426 39.2853C207.668 39.2853 207.863 39.0898 207.863 38.8496Z" fill="#fff"/>
  <path fill-rule="evenodd" clip-rule="evenodd" d="M222.411 43.5142C222.411 43.2716 222.216 43.0762 221.975 43.0762C221.733 43.0762 221.538 43.2716 221.538 43.5142C221.538 43.7544 221.733 43.9498 221.975 43.9498C222.216 43.9498 222.411 43.7544 222.411 43.5142Z" fill="#fff"/>
  <path fill-rule="evenodd" clip-rule="evenodd" d="M211.354 43.3668C211.354 43.0463 211.094 42.7847 210.773 42.7847C210.451 42.7847 210.191 43.0463 210.191 43.3668C210.191 43.6898 210.451 43.9514 210.773 43.9514C211.094 43.9514 211.354 43.6898 211.354 43.3668Z" fill="#fff"/>
  <path fill-rule="evenodd" clip-rule="evenodd" d="M229.976 39.2853C229.976 38.9648 229.716 38.7031 229.394 38.7031C229.073 38.7031 228.813 38.9648 228.813 39.2853C228.813 39.6082 229.073 39.8698 229.394 39.8698C229.716 39.8698 229.976 39.6082 229.976 39.2853Z" fill="#fff"/>
  <path fill-rule="evenodd" clip-rule="evenodd" d="M204.408 61.0242H204.371V15.5483H232.012V61.0242H231.976L218.237 69.0191L204.408 61.0242Z" fill="url(#nnikp1ysn__paint59_linear_152_4138)"/>
  <path d="M209.55 79.2607V91.7222L172.651 113.227L151.349 100.945L117.578 120.508" stroke="url(#nnikp1ysn__paint60_linear_152_4138)" stroke-width=".476576"/>
  <path d="M111.298 87.4141L63 55.5L22.2689 80.1188V67.6125" stroke="url(#nnikp1ysn__paint61_linear_152_4138)" stroke-width=".476576"/>
  <path d="M121.99 118.939L81.9424 143.293L48.4849 124.013L23.5782 138.744" stroke="url(#nnikp1ysn__paint62_linear_152_4138)" stroke-width=".476576"/>
  <defs>
    <linearGradient id="nnikp1ysn__paint0_linear_152_4138" x1="118.821" y1="141.673" x2="118.821" y2="109.834" gradientUnits="userSpaceOnUse">
      <stop stop-color="#008FA4" stop-opacity=".5"/>
      <stop offset="1" stop-color="#002D83" stop-opacity=".4"/>
    </linearGradient>
    <linearGradient id="nnikp1ysn__paint1_linear_152_4138" x1="138.562" y1="121.58" x2="138.562" y2="100.04" gradientUnits="userSpaceOnUse">
      <stop stop-color="#3DDDFF" stop-opacity=".6"/>
      <stop offset="1" stop-color="#2468FF" stop-opacity=".4"/>
    </linearGradient>
    <linearGradient id="nnikp1ysn__paint2_linear_152_4138" x1="99.0053" y1="121.581" x2="99.0053" y2="100.041" gradientUnits="userSpaceOnUse">
      <stop stop-color="#3DDDFF" stop-opacity=".6"/>
      <stop offset="1" stop-color="#2468FF" stop-opacity=".4"/>
    </linearGradient>
    <linearGradient id="nnikp1ysn__paint3_linear_152_4138" x1="118.781" y1="117.102" x2="118.781" y2="71.0649" gradientUnits="userSpaceOnUse">
      <stop stop-color="#3DDDFF" stop-opacity=".6"/>
      <stop offset="1" stop-color="#2468FF" stop-opacity=".4"/>
    </linearGradient>
    <linearGradient id="nnikp1ysn__paint4_linear_152_4138" x1="96.1889" y1="111.272" x2="109.575" y2="127.932" gradientUnits="userSpaceOnUse">
      <stop stop-color="#70F0FF" stop-opacity=".46"/>
      <stop offset="1" stop-color="#3DDDFF"/>
    </linearGradient>
    <linearGradient id="nnikp1ysn__paint5_linear_152_4138" x1="119" y1="0" x2="120.243" y2="93.2655" gradientUnits="userSpaceOnUse">
      <stop stop-color="#3DDDFF" stop-opacity="0"/>
      <stop offset="1" stop-color="#2468FF" stop-opacity=".6"/>
    </linearGradient>
    <linearGradient id="nnikp1ysn__paint6_linear_152_4138" x1="22.3806" y1="63.5117" x2="22.5166" y2="87.029" gradientUnits="userSpaceOnUse">
      <stop stop-color="#70F0FF" stop-opacity="0"/>
      <stop offset="1" stop-color="#3DDDFF"/>
    </linearGradient>
    <linearGradient id="nnikp1ysn__paint7_linear_152_4138" x1="22.3807" y1="65.7565" x2="22.4688" y2="82.8459" gradientUnits="userSpaceOnUse">
      <stop stop-color="#70F0FF" stop-opacity="0"/>
      <stop offset="1" stop-color="#3DDDFF"/>
    </linearGradient>
    <linearGradient id="nnikp1ysn__paint8_linear_152_4138" x1="30.0495" y1="68.7527" x2="30.0495" y2="60.7744" gradientUnits="userSpaceOnUse">
      <stop stop-color="#3DDDFF" stop-opacity=".6"/>
      <stop offset="1" stop-color="#2468FF" stop-opacity=".4"/>
    </linearGradient>
    <linearGradient id="nnikp1ysn__paint9_linear_152_4138" x1="14.5398" y1="68.7531" x2="14.5398" y2="60.7749" gradientUnits="userSpaceOnUse">
      <stop stop-color="#3DDDFF" stop-opacity=".6"/>
      <stop offset="1" stop-color="#2468FF" stop-opacity=".4"/>
    </linearGradient>
    <linearGradient id="nnikp1ysn__paint10_linear_152_4138" x1="22.2932" y1="49.4341" x2="22.3977" y2="67.438" gradientUnits="userSpaceOnUse">
      <stop stop-color="#3DDDFF" stop-opacity=".432"/>
      <stop offset="1" stop-color="#2468FF" stop-opacity=".576"/>
    </linearGradient>
    <linearGradient id="nnikp1ysn__paint11_linear_152_4138" x1="22.2506" y1="49.4028" x2="22.3554" y2="67.4327" gradientUnits="userSpaceOnUse">
      <stop stop-color="#70F0FF" stop-opacity=".3"/>
      <stop offset="1" stop-color="#3DDDFF"/>
    </linearGradient>
    <linearGradient id="nnikp1ysn__paint12_linear_152_4138" x1="8.3002" y1="60.6377" x2="8.31653" y2="61.9434" gradientUnits="userSpaceOnUse">
      <stop stop-color="#3DE6FF"/>
      <stop offset="1" stop-color="#1968FF"/>
    </linearGradient>
    <linearGradient id="nnikp1ysn__paint13_linear_152_4138" x1="30.0495" y1="60.9148" x2="30.0495" y2="52.9365" gradientUnits="userSpaceOnUse">
      <stop stop-color="#3DDDFF" stop-opacity=".6"/>
      <stop offset="1" stop-color="#2468FF" stop-opacity=".4"/>
    </linearGradient>
    <linearGradient id="nnikp1ysn__paint14_linear_152_4138" x1="14.5398" y1="60.9153" x2="14.5398" y2="52.937" gradientUnits="userSpaceOnUse">
      <stop stop-color="#3DDDFF" stop-opacity=".6"/>
      <stop offset="1" stop-color="#2468FF" stop-opacity=".4"/>
    </linearGradient>
    <linearGradient id="nnikp1ysn__paint15_linear_152_4138" x1="22.2932" y1="41.5962" x2="22.3977" y2="59.6001" gradientUnits="userSpaceOnUse">
      <stop stop-color="#3DDDFF" stop-opacity=".432"/>
      <stop offset="1" stop-color="#2468FF" stop-opacity=".576"/>
    </linearGradient>
    <linearGradient id="nnikp1ysn__paint16_linear_152_4138" x1="22.2506" y1="41.5649" x2="22.3554" y2="59.5948" gradientUnits="userSpaceOnUse">
      <stop stop-color="#70F0FF" stop-opacity=".3"/>
      <stop offset="1" stop-color="#3DDDFF"/>
    </linearGradient>
    <linearGradient id="nnikp1ysn__paint17_linear_152_4138" x1="8.3002" y1="52.7998" x2="8.31653" y2="54.1055" gradientUnits="userSpaceOnUse">
      <stop stop-color="#3DE6FF"/>
      <stop offset="1" stop-color="#1968FF"/>
    </linearGradient>
    <linearGradient id="nnikp1ysn__paint18_linear_152_4138" x1="30.0495" y1="53.0764" x2="30.0495" y2="45.0981" gradientUnits="userSpaceOnUse">
      <stop stop-color="#3DDDFF" stop-opacity=".6"/>
      <stop offset="1" stop-color="#2468FF" stop-opacity=".4"/>
    </linearGradient>
    <linearGradient id="nnikp1ysn__paint19_linear_152_4138" x1="14.5398" y1="53.0769" x2="14.5398" y2="45.0986" gradientUnits="userSpaceOnUse">
      <stop stop-color="#3DDDFF" stop-opacity=".6"/>
      <stop offset="1" stop-color="#2468FF" stop-opacity=".4"/>
    </linearGradient>
    <linearGradient id="nnikp1ysn__paint20_linear_152_4138" x1="22.2932" y1="33.7578" x2="22.3977" y2="51.7617" gradientUnits="userSpaceOnUse">
      <stop stop-color="#3DDDFF" stop-opacity=".432"/>
      <stop offset="1" stop-color="#2468FF" stop-opacity=".576"/>
    </linearGradient>
    <linearGradient id="nnikp1ysn__paint21_linear_152_4138" x1="18.3913" y1="50.3697" x2="17.263" y2="51.6053" gradientUnits="userSpaceOnUse">
      <stop stop-color="#3DE6FF"/>
      <stop offset="1" stop-color="#1968FF"/>
    </linearGradient>
    <linearGradient id="nnikp1ysn__paint22_linear_152_4138" x1="22.2512" y1="35.5552" x2="22.3345" y2="49.9267" gradientUnits="userSpaceOnUse">
      <stop stop-color="#0A0B28"/>
      <stop offset="1" stop-color="#121129" stop-opacity=".8"/>
    </linearGradient>
    <linearGradient id="nnikp1ysn__paint23_linear_152_4138" x1="22.2512" y1="2" x2="23.178" y2="49.9126" gradientUnits="userSpaceOnUse">
      <stop stop-color="#3DDDFF" stop-opacity="0"/>
      <stop offset="1" stop-color="#2468FF" stop-opacity=".4"/>
    </linearGradient>
    <linearGradient id="nnikp1ysn__paint24_linear_152_4138" x1="23.641" y1="150.838" x2="23.7922" y2="177.002" gradientUnits="userSpaceOnUse">
      <stop stop-color="#70F0FF" stop-opacity="0"/>
      <stop offset="1" stop-color="#3DDDFF"/>
    </linearGradient>
    <linearGradient id="nnikp1ysn__paint25_linear_152_4138" x1="23.7583" y1="155.551" x2="23.8573" y2="172.523" gradientUnits="userSpaceOnUse">
      <stop stop-color="#70F0FF" stop-opacity="0"/>
      <stop offset="1" stop-color="#3DDDFF"/>
    </linearGradient>
    <linearGradient id="nnikp1ysn__paint26_linear_152_4138" x1="32.1756" y1="156.728" x2="32.1756" y2="147.826" gradientUnits="userSpaceOnUse">
      <stop stop-color="#3DDDFF" stop-opacity=".6"/>
      <stop offset="1" stop-color="#2468FF" stop-opacity=".4"/>
    </linearGradient>
    <linearGradient id="nnikp1ysn__paint27_linear_152_4138" x1="14.8697" y1="156.726" x2="14.8697" y2="147.826" gradientUnits="userSpaceOnUse">
      <stop stop-color="#3DDDFF" stop-opacity=".6"/>
      <stop offset="1" stop-color="#2468FF" stop-opacity=".4"/>
    </linearGradient>
    <linearGradient id="nnikp1ysn__paint28_linear_152_4138" x1="23.5214" y1="135.172" x2="23.638" y2="155.26" gradientUnits="userSpaceOnUse">
      <stop stop-color="#3DDDFF" stop-opacity=".432"/>
      <stop offset="1" stop-color="#2468FF" stop-opacity=".576"/>
    </linearGradient>
    <linearGradient id="nnikp1ysn__paint29_linear_152_4138" x1="23.4744" y1="135.137" x2="23.5913" y2="155.253" gradientUnits="userSpaceOnUse">
      <stop stop-color="#70F0FF" stop-opacity=".3"/>
      <stop offset="1" stop-color="#3DDDFF"/>
    </linearGradient>
    <linearGradient id="nnikp1ysn__paint30_linear_152_4138" x1="7.90742" y1="147.672" x2="7.92568" y2="149.13" gradientUnits="userSpaceOnUse">
      <stop stop-color="#3DE6FF"/>
      <stop offset="1" stop-color="#1968FF"/>
    </linearGradient>
    <linearGradient id="nnikp1ysn__paint31_linear_152_4138" x1="32.1756" y1="147.983" x2="32.1756" y2="139.08" gradientUnits="userSpaceOnUse">
      <stop stop-color="#3DDDFF" stop-opacity=".6"/>
      <stop offset="1" stop-color="#2468FF" stop-opacity=".4"/>
    </linearGradient>
    <linearGradient id="nnikp1ysn__paint32_linear_152_4138" x1="14.8697" y1="147.981" x2="14.8697" y2="139.08" gradientUnits="userSpaceOnUse">
      <stop stop-color="#3DDDFF" stop-opacity=".6"/>
      <stop offset="1" stop-color="#2468FF" stop-opacity=".4"/>
    </linearGradient>
    <linearGradient id="nnikp1ysn__paint33_linear_152_4138" x1="23.5214" y1="126.427" x2="23.638" y2="146.514" gradientUnits="userSpaceOnUse">
      <stop stop-color="#3DDDFF" stop-opacity=".432"/>
      <stop offset="1" stop-color="#2468FF" stop-opacity=".576"/>
    </linearGradient>
    <linearGradient id="nnikp1ysn__paint34_linear_152_4138" x1="23.4744" y1="126.392" x2="23.5913" y2="146.508" gradientUnits="userSpaceOnUse">
      <stop stop-color="#70F0FF" stop-opacity=".3"/>
      <stop offset="1" stop-color="#3DDDFF"/>
    </linearGradient>
    <linearGradient id="nnikp1ysn__paint35_linear_152_4138" x1="7.90741" y1="138.927" x2="7.92567" y2="140.385" gradientUnits="userSpaceOnUse">
      <stop stop-color="#3DE6FF"/>
      <stop offset="1" stop-color="#1968FF"/>
    </linearGradient>
    <linearGradient id="nnikp1ysn__paint36_linear_152_4138" x1="32.1756" y1="139.237" x2="32.1756" y2="130.335" gradientUnits="userSpaceOnUse">
      <stop stop-color="#3DDDFF" stop-opacity=".6"/>
      <stop offset="1" stop-color="#2468FF" stop-opacity=".4"/>
    </linearGradient>
    <linearGradient id="nnikp1ysn__paint37_linear_152_4138" x1="14.8697" y1="139.235" x2="14.8697" y2="130.334" gradientUnits="userSpaceOnUse">
      <stop stop-color="#3DDDFF" stop-opacity=".6"/>
      <stop offset="1" stop-color="#2468FF" stop-opacity=".4"/>
    </linearGradient>
    <linearGradient id="nnikp1ysn__paint38_linear_152_4138" x1="23.5214" y1="117.682" x2="23.638" y2="137.769" gradientUnits="userSpaceOnUse">
      <stop stop-color="#3DDDFF" stop-opacity=".432"/>
      <stop offset="1" stop-color="#2468FF" stop-opacity=".576"/>
    </linearGradient>
    <linearGradient id="nnikp1ysn__paint39_linear_152_4138" x1="19.1678" y1="136.216" x2="17.9087" y2="137.595" gradientUnits="userSpaceOnUse">
      <stop stop-color="#3DE6FF"/>
      <stop offset="1" stop-color="#1968FF"/>
    </linearGradient>
    <linearGradient id="nnikp1ysn__paint40_linear_152_4138" x1="23.4737" y1="119.688" x2="23.5667" y2="135.721" gradientUnits="userSpaceOnUse">
      <stop stop-color="#0A0B28"/>
      <stop offset="1" stop-color="#121129" stop-opacity=".8"/>
    </linearGradient>
    <linearGradient id="nnikp1ysn__paint41_linear_152_4138" x1="23.4737" y1="82.2485" x2="24.5078" y2="135.705" gradientUnits="userSpaceOnUse">
      <stop stop-color="#3DDDFF" stop-opacity="0"/>
      <stop offset="1" stop-color="#2468FF" stop-opacity=".4"/>
    </linearGradient>
    <linearGradient id="nnikp1ysn__paint42_linear_152_4138" x1="218.359" y1="84.1377" x2="218.51" y2="110.302" gradientUnits="userSpaceOnUse">
      <stop stop-color="#70F0FF" stop-opacity="0"/>
      <stop offset="1" stop-color="#3DDDFF"/>
    </linearGradient>
    <linearGradient id="nnikp1ysn__paint43_linear_152_4138" x1="218.476" y1="88.8511" x2="218.575" y2="105.823" gradientUnits="userSpaceOnUse">
      <stop stop-color="#70F0FF" stop-opacity="0"/>
      <stop offset="1" stop-color="#3DDDFF"/>
    </linearGradient>
    <linearGradient id="nnikp1ysn__paint44_linear_152_4138" x1="226.894" y1="90.028" x2="226.894" y2="81.1259" gradientUnits="userSpaceOnUse">
      <stop stop-color="#3DDDFF" stop-opacity=".6"/>
      <stop offset="1" stop-color="#2468FF" stop-opacity=".4"/>
    </linearGradient>
    <linearGradient id="nnikp1ysn__paint45_linear_152_4138" x1="209.588" y1="90.0261" x2="209.588" y2="81.1254" gradientUnits="userSpaceOnUse">
      <stop stop-color="#3DDDFF" stop-opacity=".6"/>
      <stop offset="1" stop-color="#2468FF" stop-opacity=".4"/>
    </linearGradient>
    <linearGradient id="nnikp1ysn__paint46_linear_152_4138" x1="218.239" y1="68.4727" x2="218.356" y2="88.5603" gradientUnits="userSpaceOnUse">
      <stop stop-color="#3DDDFF" stop-opacity=".432"/>
      <stop offset="1" stop-color="#2468FF" stop-opacity=".576"/>
    </linearGradient>
    <linearGradient id="nnikp1ysn__paint47_linear_152_4138" x1="218.192" y1="68.437" x2="218.309" y2="88.5529" gradientUnits="userSpaceOnUse">
      <stop stop-color="#70F0FF" stop-opacity=".3"/>
      <stop offset="1" stop-color="#3DDDFF"/>
    </linearGradient>
    <linearGradient id="nnikp1ysn__paint48_linear_152_4138" x1="202.625" y1="80.9722" x2="202.644" y2="82.4299" gradientUnits="userSpaceOnUse">
      <stop stop-color="#3DE6FF"/>
      <stop offset="1" stop-color="#1968FF"/>
    </linearGradient>
    <linearGradient id="nnikp1ysn__paint49_linear_152_4138" x1="226.894" y1="81.2824" x2="226.894" y2="72.3803" gradientUnits="userSpaceOnUse">
      <stop stop-color="#3DDDFF" stop-opacity=".6"/>
      <stop offset="1" stop-color="#2468FF" stop-opacity=".4"/>
    </linearGradient>
    <linearGradient id="nnikp1ysn__paint50_linear_152_4138" x1="209.588" y1="81.2805" x2="209.588" y2="72.3798" gradientUnits="userSpaceOnUse">
      <stop stop-color="#3DDDFF" stop-opacity=".6"/>
      <stop offset="1" stop-color="#2468FF" stop-opacity=".4"/>
    </linearGradient>
    <linearGradient id="nnikp1ysn__paint51_linear_152_4138" x1="218.239" y1="59.7266" x2="218.356" y2="79.8142" gradientUnits="userSpaceOnUse">
      <stop stop-color="#3DDDFF" stop-opacity=".432"/>
      <stop offset="1" stop-color="#2468FF" stop-opacity=".576"/>
    </linearGradient>
    <linearGradient id="nnikp1ysn__paint52_linear_152_4138" x1="218.192" y1="59.6919" x2="218.309" y2="79.8078" gradientUnits="userSpaceOnUse">
      <stop stop-color="#70F0FF" stop-opacity=".3"/>
      <stop offset="1" stop-color="#3DDDFF"/>
    </linearGradient>
    <linearGradient id="nnikp1ysn__paint53_linear_152_4138" x1="202.625" y1="72.2271" x2="202.644" y2="73.6848" gradientUnits="userSpaceOnUse">
      <stop stop-color="#3DE6FF"/>
      <stop offset="1" stop-color="#1968FF"/>
    </linearGradient>
    <linearGradient id="nnikp1ysn__paint54_linear_152_4138" x1="226.894" y1="72.5368" x2="226.894" y2="63.6346" gradientUnits="userSpaceOnUse">
      <stop stop-color="#3DDDFF" stop-opacity=".6"/>
      <stop offset="1" stop-color="#2468FF" stop-opacity=".4"/>
    </linearGradient>
    <linearGradient id="nnikp1ysn__paint55_linear_152_4138" x1="209.588" y1="72.5349" x2="209.588" y2="63.6342" gradientUnits="userSpaceOnUse">
      <stop stop-color="#3DDDFF" stop-opacity=".6"/>
      <stop offset="1" stop-color="#2468FF" stop-opacity=".4"/>
    </linearGradient>
    <linearGradient id="nnikp1ysn__paint56_linear_152_4138" x1="218.239" y1="50.9814" x2="218.356" y2="71.0691" gradientUnits="userSpaceOnUse">
      <stop stop-color="#3DDDFF" stop-opacity=".432"/>
      <stop offset="1" stop-color="#2468FF" stop-opacity=".576"/>
    </linearGradient>
    <linearGradient id="nnikp1ysn__paint57_linear_152_4138" x1="213.886" y1="69.5163" x2="212.627" y2="70.895" gradientUnits="userSpaceOnUse">
      <stop stop-color="#3DE6FF"/>
      <stop offset="1" stop-color="#1968FF"/>
    </linearGradient>
    <linearGradient id="nnikp1ysn__paint58_linear_152_4138" x1="218.192" y1="52.9873" x2="218.285" y2="69.0206" gradientUnits="userSpaceOnUse">
      <stop stop-color="#0A0B28"/>
      <stop offset="1" stop-color="#121129" stop-opacity=".8"/>
    </linearGradient>
    <linearGradient id="nnikp1ysn__paint59_linear_152_4138" x1="218.192" y1="15.5483" x2="219.226" y2="69.0044" gradientUnits="userSpaceOnUse">
      <stop stop-color="#3DDDFF" stop-opacity="0"/>
      <stop offset="1" stop-color="#2468FF" stop-opacity=".4"/>
    </linearGradient>
    <linearGradient id="nnikp1ysn__paint60_linear_152_4138" x1="209.55" y1="82.0455" x2="174.398" y2="123.387" gradientUnits="userSpaceOnUse">
      <stop stop-color="#70F0FF" stop-opacity="0"/>
      <stop offset=".0735061" stop-color="#54E6FF" stop-opacity=".56"/>
      <stop offset=".515836" stop-color="#3DDDFF"/>
      <stop offset=".914379" stop-color="#3DDDFF" stop-opacity=".47"/>
      <stop offset="1" stop-color="#3DDDFF" stop-opacity="0"/>
    </linearGradient>
    <linearGradient id="nnikp1ysn__paint61_linear_152_4138" x1="111.5" y1="99" x2="65.3522" y2="33.1851" gradientUnits="userSpaceOnUse">
      <stop stop-color="#70F0FF" stop-opacity="0"/>
      <stop offset=".0735061" stop-color="#54E6FF" stop-opacity=".56"/>
      <stop offset=".515836" stop-color="#3DDDFF"/>
      <stop offset=".97962" stop-color="#3DDDFF" stop-opacity=".47"/>
      <stop offset="1" stop-color="#3DDDFF" stop-opacity="0"/>
    </linearGradient>
    <linearGradient id="nnikp1ysn__paint62_linear_152_4138" x1="112.67" y1="125.499" x2="73.9485" y2="80.868" gradientUnits="userSpaceOnUse">
      <stop stop-color="#70F0FF" stop-opacity="0"/>
      <stop offset=".0735061" stop-color="#54E6FF" stop-opacity=".56"/>
      <stop offset=".515836" stop-color="#3DDDFF"/>
      <stop offset=".97962" stop-color="#3DDDFF" stop-opacity=".47"/>
      <stop offset="1" stop-color="#3DDDFF" stop-opacity="0"/>
    </linearGradient>
    <filter id="nnikp1ysn__filter0_d_152_4138" x="9.8643" y="35.5552" width="24.7737" height="16.013" filterUnits="userSpaceOnUse" color-interpolation-filters="sRGB">
      <feFlood flood-opacity="0" result="BackgroundImageFix"/>
      <feColorMatrix in="SourceAlpha" values="0 0 0 0 0 0 0 0 0 0 0 0 0 0 0 0 0 0 127 0" result="hardAlpha"/>
      <feOffset dy="1.64235"/>
      <feComposite in2="hardAlpha" operator="out"/>
      <feColorMatrix values="0 0 0 0 0.027451 0 0 0 0 0.0352941 0 0 0 0 0.101961 0 0 0 0.45 0"/>
      <feBlend in2="BackgroundImageFix" result="effect1_dropShadow_152_4138"/>
      <feBlend in="SourceGraphic" in2="effect1_dropShadow_152_4138" result="shape"/>
    </filter>
    <filter id="nnikp1ysn__filter1_d_152_4138" x="9.65329" y="119.688" width="27.6408" height="17.44" filterUnits="userSpaceOnUse" color-interpolation-filters="sRGB">
      <feFlood flood-opacity="0" result="BackgroundImageFix"/>
      <feColorMatrix in="SourceAlpha" values="0 0 0 0 0 0 0 0 0 0 0 0 0 0 0 0 0 0 127 0" result="hardAlpha"/>
      <feOffset dy="1.40773"/>
      <feComposite in2="hardAlpha" operator="out"/>
      <feColorMatrix values="0 0 0 0 0.027451 0 0 0 0 0.0352941 0 0 0 0 0.101961 0 0 0 0.45 0"/>
      <feBlend in2="BackgroundImageFix" result="effect1_dropShadow_152_4138"/>
      <feBlend in="SourceGraphic" in2="effect1_dropShadow_152_4138" result="shape"/>
    </filter>
    <filter id="nnikp1ysn__filter2_d_152_4138" x="204.371" y="52.9873" width="27.6408" height="17.44" filterUnits="userSpaceOnUse" color-interpolation-filters="sRGB">
      <feFlood flood-opacity="0" result="BackgroundImageFix"/>
      <feColorMatrix in="SourceAlpha" values="0 0 0 0 0 0 0 0 0 0 0 0 0 0 0 0 0 0 127 0" result="hardAlpha"/>
      <feOffset dy="1.40773"/>
      <feComposite in2="hardAlpha" operator="out"/>
      <feColorMatrix values="0 0 0 0 0.027451 0 0 0 0 0.0352941 0 0 0 0 0.101961 0 0 0 0.45 0"/>
      <feBlend in2="BackgroundImageFix" result="effect1_dropShadow_152_4138"/>
      <feBlend in="SourceGraphic" in2="effect1_dropShadow_152_4138" result="shape"/>
    </filter>
  </defs>
</svg>
