<svg fill="none" xmlns="http://www.w3.org/2000/svg" viewBox="0 0 24 24" class="design-iconfont">
  <g clip-path="url(#rfxue9b7i__clip0_152_4692)">
    <path d="M21.5852 19.8283H20.4863V7.33505C20.4863 6.96928 20.2688 6.64924 19.9369 6.48921L14.4539 3.63166C14.1449 3.4945 13.8015 3.4945 13.4924 3.63166C13.149 3.76882 12.9315 4.1003 12.943 5.90627V21.257H11.8441V4.38605C11.8441 2.53436 11.8441 2.26004 11.432 2.11144C11.0772 1.96285 10.688 1.96285 10.3331 2.11144L4.06039 5.41477C3.72844 5.5748 3.51096 5.9177 3.51096 6.28347V19.8397H2.41208C2.13736 19.8397 2 19.9883 2 20.1254V21.7142C2 21.8514 2.13736 22 2.41208 22H21.5852C21.7111 22 21.9744 21.8514 21.9973 21.7142V20.1369C22.0316 19.9654 21.734 19.8283 21.5852 19.8283V19.8283ZM8.70773 17.8165C8.70773 17.9766 8.58181 18.1023 8.42156 18.1023H6.87626C6.71601 18.1023 6.5901 17.9766 6.5901 17.8165V16.4792C6.5901 16.3192 6.71601 16.1935 6.87626 16.1935H8.4559C8.61615 16.1935 8.74207 16.3192 8.74207 16.4792L8.70773 17.8165V17.8165ZM8.70773 13.7817C8.70773 13.9417 8.58181 14.0674 8.42156 14.0674H6.87626C6.71601 14.0674 6.5901 13.9417 6.5901 13.7817V12.4215C6.5901 12.2615 6.71601 12.1357 6.87626 12.1357H8.4559C8.61615 12.1357 8.74207 12.2615 8.74207 12.4215L8.70773 13.7817V13.7817ZM8.70773 9.75825C8.70773 9.91827 8.58181 10.044 8.42156 10.044H6.87626C6.71601 10.044 6.5901 9.91827 6.5901 9.75825V8.38663C6.5901 8.2266 6.71601 8.10087 6.87626 8.10087H8.4559C8.61615 8.10087 8.74207 8.2266 8.74207 8.38663L8.70773 9.75825V9.75825ZM17.7391 17.8051C17.7391 17.9651 17.6132 18.0909 17.453 18.0909H15.8733C15.7131 18.0909 15.5872 17.9651 15.5872 17.8051V16.4564C15.5872 16.2963 15.7131 16.1706 15.8733 16.1706H17.453C17.6132 16.1706 17.7391 16.2963 17.7391 16.4564V17.8051ZM17.7391 13.7703C17.7391 13.9303 17.6132 14.056 17.453 14.056H15.8733C15.7131 14.056 15.5872 13.9303 15.5872 13.7703V12.4215C15.5872 12.2615 15.7131 12.1357 15.8733 12.1357H17.453C17.6132 12.1357 17.7391 12.2615 17.7391 12.4215V13.7703V13.7703ZM17.7391 9.74682C17.7391 9.90684 17.6132 10.0326 17.453 10.0326H15.8733C15.7131 10.0326 15.5872 9.90684 15.5872 9.74682V8.38663C15.5872 8.2266 15.7131 8.10087 15.8733 8.10087H17.453C17.6132 8.10087 17.7391 8.2266 17.7391 8.38663V9.74682Z" fill="url(#rfxue9b7i__paint0_linear_152_4692)"/>
  </g>
  <defs>
    <linearGradient id="rfxue9b7i__paint0_linear_152_4692" x1="12" y1="2" x2="12" y2="22" gradientUnits="userSpaceOnUse">
      <stop stop-color="#5AFB9B"/>
      <stop offset="1" stop-color="#5ADEFB"/>
    </linearGradient>
    <clipPath id="rfxue9b7i__clip0_152_4692">
      <path fill="#fff" d="M0 0H24V24H0z"/>
    </clipPath>
  </defs>
</svg>
