<svg width="20" height="20" viewBox="0 0 20 20" fill="none" xmlns="http://www.w3.org/2000/svg">
<path d="M10.9521 5.52372C12.7224 5.52372 13.6087 4.60271 13.6087 2.76302C13.6087 0.923327 12.7246 0 10.9521 0C9.18182 0 8.29557 0.921007 8.29557 2.76302C8.29557 4.60503 9.18182 5.52372 10.9521 5.52372ZM4.17904 5.52372C5.94932 5.52372 6.83558 4.60271 6.83558 2.76302C6.83558 0.923327 5.94932 0 4.17904 0C2.40875 0 1.52249 0.921007 1.52249 2.76302C1.52249 4.60503 2.40652 5.52372 4.17904 5.52372ZM18.8414 7.62093C18.1895 7.38893 17.2519 8.14291 17.2519 8.14291L14.3453 10.6948C13.5662 7.77172 11.2245 6.30785 7.31778 6.30785C2.44 6.31017 0 8.59065 0 13.1539C0 17.7172 2.44 20 7.31778 20C11.1441 20 13.4702 18.5941 14.2962 15.787L16.9014 18.5524C16.9014 18.5524 18.1136 19.3388 18.7655 19.1138C19.5401 18.8447 20 17.5571 20 17.5571V9.04535C20.0022 9.04535 19.4508 7.839 18.8414 7.62093Z" fill="url(#paint0_linear_434_107)"/>
<defs>
<linearGradient id="paint0_linear_434_107" x1="10" y1="0" x2="10" y2="20" gradientUnits="userSpaceOnUse">
<stop stop-color="#5AFB9B"/>
<stop offset="1" stop-color="#5ADEFB"/>
</linearGradient>
</defs>
</svg>
