<svg width="20" height="20" viewBox="0 0 20 20" fill="none" xmlns="http://www.w3.org/2000/svg">
<path d="M20 3.33333V4.16667L10 7.5L0 4.16667V3.33333L10 0L20 3.33333ZM10 9.16667L2.5 6.66667L0 7.5V8.33333L10 11.6667L20 8.33333V7.5L17.5 6.66667L10 9.16667ZM10 13.3333L2.5 10.8333L0 11.6667V12.5L10 15.8333L20 12.5V11.6667L17.5 10.8333L10 13.3333ZM10 17.5L2.5 15L0 15.8333V16.6667L10 20L20 16.6667V15.8333L17.5 15L10 17.5Z" fill="url(#paint0_linear_383_84)"/>
<defs>
<linearGradient id="paint0_linear_383_84" x1="10" y1="0" x2="10" y2="20" gradientUnits="userSpaceOnUse">
<stop stop-color="#5AFB9B"/>
<stop offset="1" stop-color="#5ADEFB"/>
</linearGradient>
</defs>
</svg>
