<svg width="20" height="18" viewBox="0 0 20 18" fill="none" xmlns="http://www.w3.org/2000/svg">
<path fill-rule="evenodd" clip-rule="evenodd" d="M15 0C14.4477 0 14 0.447716 14 1V17.5C14 17.7761 14.2239 18 14.5 18H19C19.2761 18 19.5 17.7761 19.5 17.5V1C19.5 0.447715 19.0523 0 18.5 0H15ZM7 7C7 6.44771 7.44772 6 8 6H11.5C12.0523 6 12.5 6.44772 12.5 7V17.5C12.5 17.7761 12.2761 18 12 18H7.5C7.22386 18 7 17.7761 7 17.5V7ZM0 10C0 9.44771 0.447715 9 1 9H4.5C5.05228 9 5.5 9.44771 5.5 10V17.5C5.5 17.7761 5.27614 18 5 18H0.5C0.223857 18 0 17.7761 0 17.5V10Z" fill="url(#paint0_linear_599_10)"/>
<defs>
<linearGradient id="paint0_linear_599_10" x1="9.75" y1="0" x2="9.75" y2="18" gradientUnits="userSpaceOnUse">
<stop stop-color="#5AFB9B"/>
<stop offset="1" stop-color="#5ADEFB"/>
</linearGradient>
</defs>
</svg>
